<svg xmlns="http://www.w3.org/2000/svg" xmlns:xlink="http://www.w3.org/1999/xlink" width="500" zoomAndPan="magnify" viewBox="0 0 375 374.999991" height="500" preserveAspectRatio="xMidYMid meet" version="1.0"><path fill="#8dd5d8" d="M 287.15625 0.0429688 L 26.105469 0.0429688 C 11.703125 0.0429688 0 11.699219 0 26.105469 L 0 234.609375 C 0 249.015625 11.703125 260.671875 26.105469 260.671875 L 287.15625 260.671875 C 301.585938 260.671875 313.261719 249.015625 313.261719 234.609375 L 313.261719 26.105469 C 313.261719 11.699219 301.585938 0.0429688 287.15625 0.0429688 " fill-opacity="1" fill-rule="nonzero"/><path fill="#5498d7" d="M 32.632812 32.621094 L 19.578125 32.621094 L 19.578125 19.589844 L 32.632812 19.589844 L 32.632812 32.621094 " fill-opacity="1" fill-rule="nonzero"/><path fill="#5498d7" d="M 58.738281 32.621094 L 45.683594 32.621094 L 45.683594 19.589844 L 58.738281 19.589844 L 58.738281 32.621094 " fill-opacity="1" fill-rule="nonzero"/><path fill="#5498d7" d="M 84.84375 32.621094 L 71.789062 32.621094 L 71.789062 19.589844 L 84.84375 19.589844 L 84.84375 32.621094 " fill-opacity="1" fill-rule="nonzero"/><path fill="#5498d7" d="M 326.316406 52.167969 L 65.261719 52.167969 C 50.832031 52.167969 39.15625 63.828125 39.15625 78.234375 L 39.15625 286.734375 C 39.15625 301.140625 50.832031 312.796875 65.261719 312.796875 L 326.316406 312.796875 C 340.746094 312.796875 352.421875 301.140625 352.421875 286.734375 L 352.421875 78.234375 C 352.421875 63.828125 340.746094 52.167969 326.316406 52.167969 " fill-opacity="1" fill-rule="nonzero"/><path fill="#4e8eca" d="M 326.316406 52.167969 L 295.316406 52.167969 C 248.535156 200.859375 158.976562 275.996094 96.953125 312.796875 L 326.316406 312.796875 C 340.746094 312.796875 352.421875 301.140625 352.421875 286.734375 L 352.421875 78.234375 C 352.421875 63.828125 340.746094 52.167969 326.316406 52.167969 " fill-opacity="1" fill-rule="nonzero"/><path fill="#8dd5d8" d="M 71.789062 84.75 L 58.738281 84.75 L 58.738281 71.71875 L 71.789062 71.71875 L 71.789062 84.75 " fill-opacity="1" fill-rule="nonzero"/><path fill="#8dd5d8" d="M 97.894531 84.75 L 84.84375 84.75 L 84.84375 71.71875 L 97.894531 71.71875 L 97.894531 84.75 " fill-opacity="1" fill-rule="nonzero"/><path fill="#8dd5d8" d="M 124 84.75 L 110.949219 84.75 L 110.949219 71.71875 L 124 71.71875 L 124 84.75 " fill-opacity="1" fill-rule="nonzero"/><path fill="#4583c1" d="M 332.84375 273.703125 L 58.738281 273.703125 L 58.738281 260.671875 L 332.84375 260.671875 L 332.84375 273.703125 " fill-opacity="1" fill-rule="nonzero"/><path fill="#4583c1" d="M 84.84375 247.640625 L 71.789062 247.640625 L 71.789062 208.546875 L 84.84375 208.546875 L 84.84375 247.640625 " fill-opacity="1" fill-rule="nonzero"/><path fill="#4583c1" d="M 110.949219 247.640625 L 97.894531 247.640625 L 97.894531 169.453125 L 110.949219 169.453125 L 110.949219 247.640625 " fill-opacity="1" fill-rule="nonzero"/><path fill="#4583c1" d="M 137.050781 247.640625 L 124 247.640625 L 124 189 L 137.050781 189 L 137.050781 247.640625 " fill-opacity="1" fill-rule="nonzero"/><path fill="#4583c1" d="M 163.15625 247.640625 L 150.105469 247.640625 L 150.105469 143.390625 L 163.15625 143.390625 L 163.15625 247.640625 " fill-opacity="1" fill-rule="nonzero"/><path fill="#4583c1" d="M 189.261719 247.640625 L 176.210938 247.640625 L 176.210938 130.359375 L 189.261719 130.359375 L 189.261719 247.640625 " fill-opacity="1" fill-rule="nonzero"/><path fill="#4583c1" d="M 215.367188 182.484375 L 202.316406 182.484375 L 202.316406 136.875 L 215.367188 136.875 L 215.367188 182.484375 " fill-opacity="1" fill-rule="nonzero"/><path fill="#4583c1" d="M 241.472656 182.484375 L 228.421875 182.484375 L 228.421875 110.8125 L 241.472656 110.8125 L 241.472656 182.484375 " fill-opacity="1" fill-rule="nonzero"/><path fill="#4583c1" d="M 267.578125 182.484375 L 254.527344 182.484375 L 254.527344 97.78125 L 267.578125 97.78125 L 267.578125 182.484375 " fill-opacity="1" fill-rule="nonzero"/><path fill="#4583c1" d="M 293.683594 247.640625 L 280.632812 247.640625 L 280.632812 123.84375 L 293.683594 123.84375 L 293.683594 247.640625 " fill-opacity="1" fill-rule="nonzero"/><path fill="#4583c1" d="M 319.789062 247.640625 L 306.738281 247.640625 L 306.738281 149.90625 L 319.789062 149.90625 L 319.789062 247.640625 " fill-opacity="1" fill-rule="nonzero"/><path fill="#f9ae1c" d="M 293.683594 280.21875 L 274.105469 299.765625 L 352.421875 377.957031 L 372 358.410156 L 293.683594 280.21875 " fill-opacity="1" fill-rule="nonzero"/><path fill="#f6891f" d="M 293.683594 280.21875 L 274.105469 299.765625 L 300.210938 325.832031 L 319.789062 306.28125 L 293.683594 280.21875 " fill-opacity="1" fill-rule="nonzero"/><path fill="#f9ae1c" d="M 319.789062 247.640625 C 319.789062 294.421875 281.804688 332.347656 234.949219 332.347656 C 188.089844 332.347656 150.105469 294.421875 150.105469 247.640625 C 150.105469 200.859375 188.089844 162.9375 234.949219 162.9375 C 281.804688 162.9375 319.789062 200.859375 319.789062 247.640625 " fill-opacity="1" fill-rule="nonzero"/><path fill="#8dd5d8" d="M 293.683594 247.640625 C 293.683594 280.015625 267.375 306.28125 234.949219 306.28125 C 202.519531 306.28125 176.210938 280.015625 176.210938 247.640625 C 176.210938 215.265625 202.519531 189 234.949219 189 C 267.375 189 293.683594 215.265625 293.683594 247.640625 " fill-opacity="1" fill-rule="nonzero"/><path fill="#5498d7" d="M 177.714844 260.671875 C 178.761719 265.253906 180.339844 269.605469 182.378906 273.703125 L 287.515625 273.703125 C 289.554688 269.605469 291.136719 265.253906 292.179688 260.671875 L 177.714844 260.671875 " fill-opacity="1" fill-rule="nonzero"/><path fill="#5498d7" d="M 241.472656 247.640625 L 241.472656 189.382812 C 239.332031 189.152344 237.164062 189 234.949219 189 C 232.730469 189 230.5625 189.152344 228.421875 189.382812 L 228.421875 247.640625 L 241.472656 247.640625 " fill-opacity="1" fill-rule="nonzero"/><path fill="#5498d7" d="M 215.367188 247.640625 L 215.367188 192.410156 C 210.730469 194.039062 206.34375 196.203125 202.316406 198.902344 L 202.316406 247.640625 L 215.367188 247.640625 " fill-opacity="1" fill-rule="nonzero"/><path fill="#5498d7" d="M 267.578125 247.640625 L 267.578125 198.902344 C 263.550781 196.203125 259.167969 194.039062 254.527344 192.410156 L 254.527344 247.640625 L 267.578125 247.640625 " fill-opacity="1" fill-rule="nonzero"/><path fill="#5498d7" d="M 189.261719 210.8125 C 181.105469 220.890625 176.210938 233.695312 176.210938 247.640625 L 189.261719 247.640625 L 189.261719 210.8125 " fill-opacity="1" fill-rule="nonzero"/><path fill="#5498d7" d="M 280.632812 247.640625 L 293.683594 247.640625 C 293.683594 233.695312 288.789062 220.890625 280.632812 210.8125 L 280.632812 247.640625 " fill-opacity="1" fill-rule="nonzero"/></svg>